HIERARCHY
ROOT Hips
{
 OFFSET 0.000000 0.000000 0.000000
 CHANNELS 6 Xposition Yposition Zposition Yrotation Xrotation Zrotation
 JOINT Chest
 {
  OFFSET 0.000000 9.585900 0.002600
  CHANNELS 3 Yrotation Xrotation Zrotation
  JOINT Chest2
  {
   OFFSET 0.000000 9.601200 -0.005300
   CHANNELS 3 Yrotation Xrotation Zrotation
   JOINT Chest3
   {
    OFFSET 0.000000 9.561800 0.000000
    CHANNELS 3 Yrotation Xrotation Zrotation
    JOINT Chest4
    {
     OFFSET 0.000000 9.552100 0.000000
     CHANNELS 3 Yrotation Xrotation Zrotation
     JOINT Neck
     {
      OFFSET 0.000000 14.453000 0.000000
      CHANNELS 3 Yrotation Xrotation Zrotation
      JOINT Head
      {
       OFFSET 0.000000 8.936500 -0.011300
       CHANNELS 3 Yrotation Xrotation Zrotation
       End Site
       {
        OFFSET 0.000000 17.073600 -0.006000
       }
      }
     }
     JOINT RightCollar
     {
      OFFSET -2.921100 9.558500 0.000000
      CHANNELS 3 Yrotation Xrotation Zrotation
      JOINT RightShoulder
      {
       OFFSET -13.519700 0.000000 0.000000
       CHANNELS 3 Yrotation Xrotation Zrotation
       JOINT RightElbow
       {
        OFFSET 0.000000 -29.696600 0.000000
        CHANNELS 3 Yrotation Xrotation Zrotation
        JOINT RightWrist
        {
         OFFSET 0.000000 -24.004700 0.000000
         CHANNELS 3 Yrotation Xrotation Zrotation
         End Site
         {
          OFFSET 0.000000 -17.728500 0.000000
         }
        }
       }
      }
     }
     JOINT LeftCollar
     {
      OFFSET 2.921100 9.558500 0.000000
      CHANNELS 3 Yrotation Xrotation Zrotation
      JOINT LeftShoulder
      {
       OFFSET 13.519700 0.000000 0.000000
       CHANNELS 3 Yrotation Xrotation Zrotation
       JOINT LeftElbow
       {
        OFFSET 0.000000 -29.696600 0.000000
        CHANNELS 3 Yrotation Xrotation Zrotation
        JOINT LeftWrist
        {
         OFFSET 0.000000 -24.004700 0.000000
         CHANNELS 3 Yrotation Xrotation Zrotation
         End Site
         {
          OFFSET 0.000000 -17.728500 0.000000
         }
        }
       }
      }
     }
    }
   }
  }
 }
 JOINT RightHip
 {
  OFFSET -7.771700 -0.012900 -0.001300
  CHANNELS 3 Yrotation Xrotation Zrotation
  JOINT RightKnee
  {
   OFFSET 0.000000 -40.869800 0.001200
   CHANNELS 3 Yrotation Xrotation Zrotation
   JOINT RightAnkle
   {
    OFFSET 0.000000 -39.717900 0.002100
    CHANNELS 3 Yrotation Xrotation Zrotation
    JOINT RightToe
    {
     OFFSET 0.000000 -4.965400 11.033500
     CHANNELS 3 Yrotation Xrotation Zrotation
     End Site
     {
      OFFSET 0.000000 -1.423100 5.872300
     }
    }
   }
  }
 }
 JOINT LeftHip
 {
  OFFSET 7.771700 -0.012900 -0.001300
  CHANNELS 3 Yrotation Xrotation Zrotation
  JOINT LeftKnee
  {
   OFFSET 0.000000 -40.869800 0.001200
   CHANNELS 3 Yrotation Xrotation Zrotation
   JOINT LeftAnkle
   {
    OFFSET 0.000000 -39.717900 0.002100
    CHANNELS 3 Yrotation Xrotation Zrotation
    JOINT LeftToe
    {
     OFFSET 0.000000 -4.965400 11.033500
     CHANNELS 3 Yrotation Xrotation Zrotation
     End Site
     {
      OFFSET 0.000000 -1.423100 5.872300
     }
    }
   }
  }
 }
}
MOTION
Frames: 5
Frame Time: 0.008333
0.000000 85.388000 0.000000 0.000000 -5.767877 0.000000 0.000000 11.653817 0.000000 0.000000 -5.885947 0.000000 0.000000 -0.000000 0.000000 0.000000 -0.000000 0.000000 0.000000 12.528835 0.000000 0.000000 0.711642 0.000000 0.000000 -0.000000 0.000000 0.000000 0.000000 -90.000000 0.000000 -2.309062 0.000000 0.000000 2.309062 0.000000 0.000000 -0.000000 0.000000 0.000000 -0.000000 90.000000 0.000000 -2.309062 0.000000 0.000000 2.309062 0.000000 0.000000 8.520406 0.000000 0.000000 1.905762 0.000000 -0.000000 -4.658285 0.000000 0.000000 -0.000000 0.000000 0.000000 8.520406 0.000000 0.000000 1.905762 0.000000 -0.000000 -4.658285 0.000000 0.000000 -0.000000 0.000000
-32.046637 56.150149 36.350871 -167.140926 -26.532567 -8.943004 -4.619392 14.386414 5.345252 -2.401387 8.456111 2.284759 -2.931837 10.649230 2.842442 -2.403653 8.455869 2.289479 1.764891 19.850226 -1.878363 2.335417 -4.588408 -2.376412 1.878755 -5.094695 -7.196783 6.104795 -23.322415 2.980803 55.011593 -34.994654 -37.002227 11.011072 9.137701 -21.738604 -8.651478 -7.432916 -3.336692 -16.276720 -22.082263 3.478471 -43.744331 -24.927832 41.582146 -3.346533 -8.279077 1.434357 -23.557904 -32.637662 1.636312 74.702803 88.601938 71.662498 0.108428 -26.428012 -0.484977 -0.058797 0.868750 -0.018653 -15.876888 -48.442326 2.789376 175.300524 73.750154 173.086593 -0.434467 -24.519884 0.813742 -0.243456 -2.063175 -0.116879
-32.057201 56.154684 36.352292 -167.195152 -26.657177 -8.847184 -4.605400 14.435495 5.221679 -2.400303 8.456294 2.279077 -2.947318 10.601296 2.809241 -2.400410 8.456451 2.280511 1.832359 19.856287 -1.858715 2.385812 -4.635864 -2.392709 1.862114 -5.110471 -7.158472 6.056233 -23.288801 2.962069 54.937965 -35.024591 -36.814008 10.904642 9.102593 -21.796620 -8.627369 -7.312021 -3.307939 -16.143283 -22.078220 3.450274 -43.670382 -25.010773 41.566659 -3.314821 -8.343345 1.345755 -23.459966 -32.574508 1.500067 75.545086 88.585948 72.491176 0.109636 -26.431762 -0.497623 -0.057967 0.866281 -0.021299 -15.627088 -48.247503 2.627595 175.337074 73.856413 173.139714 -0.544848 -24.767337 0.849715 -0.168857 -1.832821 -0.081359
-32.049041 56.157194 36.361439 -167.226403 -26.731264 -8.858398 -4.598192 14.445247 5.201774 -2.399846 8.457324 2.272504 -2.954715 10.585474 2.791969 -2.399790 8.457274 2.272519 1.892583 19.836681 -1.855174 2.408486 -4.608611 -2.379617 1.856416 -5.112537 -7.132479 6.022766 -23.263724 2.946478 54.794652 -35.047191 -36.658684 10.894402 9.023060 -21.826964 -8.630156 -7.232963 -3.303276 -15.977814 -22.055747 3.433707 -43.602552 -25.106717 41.566405 -3.276288 -8.406746 1.254339 -23.456331 -32.511159 1.491490 75.630149 88.550054 72.589539 0.103802 -26.404319 -0.517037 -0.045734 0.854649 -0.041830 -15.542215 -48.163315 2.642898 175.432065 73.870494 173.243792 -0.579921 -24.824367 0.886759 -0.157970 -1.784668 -0.076535
-32.063968 56.164261 36.360771 -167.357532 -26.929770 -8.698051 -4.521533 14.554222 5.042516 -2.399526 8.459563 2.265776 -2.954440 10.588180 2.783632 -2.379863 8.490287 2.281721 1.921771 19.775676 -1.874077 2.480558 -4.677256 -2.410575 1.855021 -5.112332 -7.122560 6.009244 -23.253464 2.939345 54.669104 -35.045126 -36.583188 10.880780 8.942126 -21.855990 -8.721403 -7.190323 -3.330603 -15.754132 -22.039429 3.451225 -43.531453 -25.220183 41.579699 -3.235589 -8.469053 1.158912 -23.277898 -32.415911 1.271006 77.513766 88.454627 74.475963 0.079765 -26.390442 -0.568492 -0.032647 0.845550 -0.049162 -15.185611 -47.866454 2.433740 175.475961 73.991450 173.263690 -0.689242 -25.254733 0.944433 -0.104146 -1.394620 -0.043194
